<svg width="86" height="86" viewBox="0 0 86 86" fill="none" xmlns="http://www.w3.org/2000/svg">
<path d="M57.0897 36.3458V55.5417H52.202V36.3458H57.0897ZM51.9297 30.9851C51.9297 29.4873 53.0298 28.3442 54.6459 28.3442C56.3049 28.3442 57.3262 29.4873 57.3692 30.9851C57.3692 32.4435 56.3014 33.5866 54.61 33.5866C52.9939 33.5866 51.9297 32.4435 51.9297 30.9851Z" fill="#FFAF82"/>
<path fill-rule="evenodd" clip-rule="evenodd" d="M45.2718 55.5417L42.8674 48.0131H34.4322L32.1461 55.5417H27.1401L35.6541 28.9748H41.8426L50.4748 55.5417H45.2718ZM37.2702 37.8042L35.2206 44.3473H42.0396L39.9506 37.8042C39.5349 36.4962 39.173 35.0593 38.8397 33.7442C38.7639 33.4419 38.6875 33.1397 38.6104 32.8377H38.5316C38.3954 33.3644 38.2628 33.927 38.1231 34.5039C37.8579 35.6147 37.582 36.7686 37.2702 37.8042Z" fill="#FFAF82"/>
<path fill-rule="evenodd" clip-rule="evenodd" d="M61.8413 10.1516C49.3189 8.76339 36.6814 8.76339 24.159 10.1516C16.9493 10.9578 11.1264 16.6374 10.2808 23.8829C8.79508 36.5844 8.79508 49.4157 10.2808 62.1171C11.1264 69.3626 16.9458 75.0422 24.159 75.8484C36.6815 77.2352 49.3188 77.2352 61.8413 75.8484C69.051 75.0422 74.8739 69.3626 75.7196 62.1171C77.2052 49.4157 77.2052 36.5844 75.7196 23.8829C74.8739 16.6374 69.0546 10.9578 61.8413 10.1516ZM24.7538 15.4908C36.8809 14.1466 49.1194 14.1466 61.2465 15.4908C66.0123 16.0283 69.8286 19.7872 70.384 24.51C71.8208 36.7948 71.8208 49.2052 70.384 61.49C70.0967 63.8014 69.0386 65.9485 67.3806 67.5844C65.7226 69.2202 63.5616 70.2494 61.2465 70.5057C49.1194 71.85 36.8809 71.85 24.7538 70.5057C22.4388 70.2494 20.2777 69.2202 18.6197 67.5844C16.9617 65.9485 15.9036 63.8014 15.6163 61.49C14.1796 49.2052 14.1796 36.7948 15.6163 24.51C15.9036 22.1986 16.9617 20.0515 18.6197 18.4157C20.2777 16.7798 22.4388 15.747 24.7538 15.4908Z" fill="#FFAF82"/>
</svg>
