<svg width="86" height="86" viewBox="0 0 86 86" fill="none" xmlns="http://www.w3.org/2000/svg">
<path fill-rule="evenodd" clip-rule="evenodd" d="M32.5906 55.5417H27.7817V29.3296C29.5161 29.0142 31.9205 28.7777 35.1921 28.7777C38.7396 28.7777 41.3411 29.5267 43.0396 30.9457C44.6162 32.2464 45.6375 34.3355 45.6375 36.8187C45.6375 39.3414 44.8492 41.4305 43.3513 42.8495C41.4199 44.7809 38.3848 45.6875 34.9556 45.6875C34.049 45.6875 33.2212 45.6481 32.5906 45.5298V55.5417ZM35.3892 32.4829C34.049 32.4829 33.103 32.6012 32.5942 32.7194V41.7064C33.1818 41.8641 33.9702 41.9035 34.9592 41.9035C38.5819 41.9035 40.7892 40.1297 40.7892 37.0158C40.7892 34.0596 38.7396 32.4829 35.3892 32.4829Z" fill="#FFAF82"/>
<path d="M51.8327 55.9753C49.5035 55.9753 47.418 55.384 45.999 54.5957L46.945 51.0876C48.0487 51.7577 50.1342 52.4672 51.8721 52.4672C54.0006 52.4672 54.9466 51.6 54.9466 50.3387C54.9466 49.0379 54.1583 48.3678 51.7933 47.5401C48.0487 46.2393 46.472 44.1897 46.5114 41.9429C46.5114 38.5531 49.3064 35.9122 53.7641 35.9122C55.8926 35.9122 57.7416 36.464 58.8489 37.0553L57.9029 40.4845C56.6615 39.787 55.2666 39.4078 53.8429 39.3808C52.1086 39.3808 51.1626 40.2086 51.1626 41.3911C51.1626 42.613 52.0692 43.2043 54.513 44.0714C57.9817 45.3328 59.5978 47.1065 59.6372 49.9445C59.6372 53.4132 56.9139 55.9753 51.8327 55.9753Z" fill="#FFAF82"/>
<path fill-rule="evenodd" clip-rule="evenodd" d="M61.8413 10.1516C49.3189 8.76339 36.6814 8.76339 24.159 10.1516C16.9493 10.9578 11.1264 16.6374 10.2807 23.8829C8.79509 36.5843 8.79509 49.4157 10.2807 62.1171C11.1264 69.3626 16.9457 75.0422 24.159 75.8484C36.6815 77.2352 49.3188 77.2352 61.8413 75.8484C69.051 75.0422 74.8739 69.3626 75.7196 62.1171C77.2055 49.4157 77.2055 36.5843 75.7196 23.8829C74.8739 16.6374 69.0546 10.9578 61.8413 10.1516ZM24.7538 15.4908C36.8809 14.1465 49.1194 14.1465 61.2465 15.4908C66.0123 16.0283 69.8286 19.7872 70.384 24.51C71.8207 36.7948 71.8207 49.2052 70.384 61.49C70.0967 63.8014 69.0386 65.9485 67.3806 67.5844C65.7226 69.2202 63.5615 70.2494 61.2465 70.5057C49.1194 71.85 36.8809 71.85 24.7538 70.5057C22.4388 70.2494 20.2777 69.2202 18.6197 67.5844C16.9617 65.9485 15.9036 63.8014 15.6163 61.49C14.1796 49.2052 14.1796 36.7948 15.6163 24.51C15.9036 22.1986 16.9617 20.0515 18.6197 18.4157C20.2777 16.7798 22.4388 15.747 24.7538 15.4908Z" fill="#FFAF82"/>
</svg>
